<svg width="141" height="150" viewBox="0 0 141 150" fill="none" xmlns="http://www.w3.org/2000/svg">
<g clip-path="url(#clip0_22387_122144)">
<path d="M70.7552 4.01433C93.1567 4.01433 115.081 7.86963 135.951 15.4815C136.632 20.9107 136.977 26.4003 136.977 31.835C136.977 78.9979 111.563 122.311 70.4973 145.41C29.4315 122.311 4.01713 78.9979 4.01713 31.835C4.01713 26.4716 4.35189 21.0478 5.02141 15.6789C26.0564 7.94092 48.1561 4.01433 70.7552 4.01433ZM70.7552 0C46.3012 0 22.9119 4.52435 1.35551 12.7669C0.466469 18.9968 0 25.3583 0 31.835C0 82.8916 28.515 127.291 70.4973 150C112.48 127.291 140.995 82.8916 140.995 31.835C140.995 25.287 140.517 18.8542 139.612 12.5585C118.209 4.45306 95.0061 0 70.7552 0Z" fill="#002E6D"/>
<path d="M70.7551 12.043C90.5334 12.043 109.928 15.1854 128.499 21.3824C128.795 24.8702 128.949 28.3636 128.949 31.8295C128.949 74.5558 106.717 113.915 70.5026 136.092C34.2881 113.92 12.0513 74.5613 12.0513 31.835C12.0513 28.4239 12.194 24.9909 12.4848 21.5633C31.2149 15.2457 50.7792 12.0485 70.7551 12.0485" fill="#002E6D"/>
<path d="M76.7808 96.2398C76.8632 96.9527 76.9016 97.6163 76.9016 98.2799C76.9016 98.9434 76.8522 99.6454 76.7699 100.331C78.5589 101.071 80.2163 102.069 81.698 103.281C81.7035 103.232 81.7145 103.188 81.7199 103.139C81.9998 100.583 81.4894 98.0605 80.2492 95.823C79.0309 94.951 77.6973 94.2436 76.2705 93.7226C76.49 94.5507 76.6766 95.3898 76.7754 96.2398H76.7808Z" fill="#FFD100"/>
<path d="M64.1698 120.682C64.2191 120.677 64.2685 120.666 64.3179 120.66C63.1051 119.18 62.1063 117.523 61.3654 115.736C60.6795 115.818 59.988 115.867 59.3075 115.867C58.627 115.867 57.963 115.829 57.266 115.747C56.4154 115.648 55.5757 115.461 54.7471 115.242C55.2739 116.668 55.9818 118.001 56.8489 119.218C59.088 120.452 61.6124 120.967 64.1698 120.688V120.682Z" fill="#FFD100"/>
<path d="M64.1971 110.038C63.3849 111.546 62.8032 113.196 62.4849 114.94C64.5318 120.112 68.8947 124.159 74.2234 125.826C75.8643 125.453 77.4174 124.839 78.8387 124.022C75.9302 121.905 72.813 119.202 69.7563 116.147C67.7258 114.118 65.8654 112.067 64.1971 110.043V110.038Z" fill="#FFD100"/>
<path d="M57.255 114.386C57.3099 114.392 57.3593 114.408 57.4141 114.414C58.7477 114.567 59.955 114.562 61.2118 114.414C62.6386 107.246 68.2692 101.614 75.4473 100.188C75.5241 99.5466 75.5626 98.9105 75.5626 98.2798C75.5626 97.6492 75.5241 97.0514 75.4473 96.3933C75.4473 96.3659 75.4363 96.3385 75.4308 96.311C65.6514 96.8046 57.7983 104.625 57.2495 114.386H57.255Z" fill="#FFD100"/>
<path d="M75.2057 94.9839C75.085 94.3916 74.9313 93.8158 74.7447 93.24C73.3837 92.8835 71.9679 92.6751 70.4971 92.6751C61.2336 92.6751 53.6987 100.205 53.6987 109.462C53.6987 110.932 53.9073 112.346 54.264 113.707C54.8128 113.882 55.367 114.036 55.9268 114.156C56.5799 103.841 64.8666 95.5872 75.2057 94.9839Z" fill="#FFD100"/>
<path d="M64.3123 122.015C63.8074 122.07 63.3025 122.097 62.8031 122.097C61.4257 122.097 60.0756 121.867 58.7695 121.461C61.7988 124.422 65.9367 126.254 70.5026 126.254C70.8374 126.254 71.1612 126.221 71.4904 126.205C69.1855 125.146 67.1001 123.66 65.3605 121.845C65.0147 121.911 64.6635 121.976 64.3123 122.015Z" fill="#FFD100"/>
<path d="M82.5322 97.7753C83.0755 99.5412 83.2621 101.406 83.0591 103.287C83.0207 103.638 82.9548 103.983 82.8889 104.329C84.7054 106.067 86.1926 108.151 87.2518 110.454C87.2683 110.125 87.3012 109.802 87.3012 109.473C87.3012 104.927 85.4792 100.808 82.5322 97.7808V97.7753Z" fill="#FFD100"/>
<path d="M70.5084 103.49C68.2584 104.811 66.3486 106.632 64.9272 108.815C66.645 110.926 68.5822 113.07 70.706 115.198C73.867 118.357 77.0939 121.126 80.0628 123.249C81.9232 121.955 83.5037 120.293 84.711 118.373C82.6037 115.439 79.8598 112.264 76.7481 109.155C74.6737 107.082 72.5719 105.179 70.5029 103.49H70.5084Z" fill="#FFD100"/>
<path d="M75.9852 101.455C74.509 101.724 73.1041 102.19 71.7925 102.815C73.7571 104.444 75.7383 106.248 77.7029 108.206C80.6938 111.195 83.3445 114.244 85.4463 117.096C86.0774 115.873 86.5604 114.562 86.8732 113.186C85.2103 107.86 81.1603 103.501 75.9907 101.455H75.9852Z" fill="#FFD100"/>
<path d="M104.55 30.3104H93.3324L85.4628 52.3837C85.3475 52.137 85.2268 51.8902 85.0951 51.6434C84.0469 49.6801 82.4609 48.0733 80.3865 46.8668C78.4767 45.7535 75.7053 44.7828 72.1492 43.9822C67.7699 42.995 66.8808 42.315 66.782 42.2328C66.3485 41.8708 66.2881 41.5911 66.2881 41.3498C66.2881 40.7521 66.5186 40.3024 67.0674 39.8417C67.6875 39.3152 68.604 39.0465 69.7839 39.0465C70.7882 39.0465 71.7102 39.2768 72.5114 39.7375C73.3949 40.242 74.3059 41.0921 75.2114 42.2657L76.1937 43.5325L86.6646 39.6443L85.1994 37.3684C84.2774 35.9425 83.3225 34.7799 82.3457 33.9134C80.9023 32.6521 79.1352 31.6156 77.0938 30.8204C75.0358 30.0198 72.687 29.6194 70.1132 29.6194C65.5363 29.6194 61.8375 30.7766 59.11 33.0634C58.8685 33.2663 58.638 33.4747 58.413 33.6886V30.3159H46.3232V54.1606C46.3232 55.6358 46.0653 56.8313 45.5549 57.7143C45.0665 58.5588 44.4793 59.1182 43.7055 59.4746C42.8275 59.8805 41.7738 60.0889 40.5829 60.0889C38.7664 60.0889 37.4658 59.6446 36.4835 58.6904C35.5451 57.7746 35.0731 56.2555 35.0731 54.1661V30.3214H23.0107V55.3726C23.0107 58.3833 23.5047 60.8731 24.476 62.7596C25.4254 64.5968 26.6382 66.1433 28.0925 67.3552C29.1791 68.2491 30.5236 68.9675 32.1042 69.4995C34.8152 70.4044 37.7731 70.865 40.8902 70.865C46.444 70.865 50.7794 69.4995 53.7868 66.8068C54.5441 66.1268 55.2191 65.359 55.8008 64.509C56.163 64.9642 56.5197 65.37 56.8709 65.721C58.4295 67.3004 60.3502 68.5672 62.5783 69.483C64.8009 70.3989 67.4186 70.865 70.3711 70.865C73.4937 70.865 76.32 70.3111 78.7676 69.2143C79.0584 69.0827 79.3383 68.9511 79.6127 68.803L79.1243 70.1686H91.3074L94.2653 61.8383H103.683L106.646 70.1686H118.835L104.555 30.3214L104.55 30.3104ZM100.286 52.3015H97.58L98.941 48.5285L100.286 52.3015ZM59.1429 50.8372C61.2887 52.5592 64.6198 53.9357 69.312 55.06C73.3455 56.0416 74.3498 56.8204 74.5035 56.952C75.0797 57.4894 75.162 57.9117 75.162 58.2572C75.162 58.6465 75.0578 59.1785 74.262 59.8256C73.5212 60.4234 72.3797 60.725 70.854 60.725C69.5424 60.725 68.4119 60.4618 67.501 59.9408C66.5461 59.3979 65.4649 58.3065 64.3783 56.7875L63.4235 55.4548L58.3142 57.27C58.3856 56.59 58.4185 55.8881 58.4185 55.1806V50.2066C58.649 50.4205 58.896 50.6343 59.1484 50.8372H59.1539H59.1429Z" fill="#AA182C"/>
<path d="M70.7552 4.01433C48.1561 4.01433 26.0564 7.93543 5.02137 15.6789C4.35734 21.0478 4.01709 26.4716 4.01709 31.835C4.01709 78.9979 29.4314 122.311 70.4972 145.41C111.563 122.311 136.977 78.9924 136.977 31.835C136.977 26.4057 136.632 20.9162 135.951 15.4815C115.075 7.86962 93.1512 4.01433 70.7552 4.01433ZM132.252 18.4264C132.724 22.8905 132.966 27.3819 132.966 31.835C132.966 76.7823 109.143 118.127 70.5027 140.781C31.8571 118.127 8.03422 76.7823 8.03422 31.835C8.03422 27.4477 8.26471 23.0166 8.72569 18.6129C28.6192 11.5878 49.4622 8.03414 70.7497 8.03414C92.0371 8.03414 112.512 11.5275 132.241 18.4264H132.252Z" fill="#AA182C"/>
<path d="M132.252 18.4264C132.724 22.8905 132.966 27.3819 132.966 31.835C132.966 76.7823 109.143 118.127 70.5027 140.781C31.8571 118.127 8.03418 76.7823 8.03418 31.835C8.03418 27.4477 8.26467 23.0166 8.72565 18.6129C28.6192 11.5878 49.4622 8.03415 70.7496 8.03415C92.0371 8.03415 112.512 11.5275 132.241 18.4264H132.252ZM70.7551 12.043C50.7792 12.043 31.215 15.2402 12.4848 21.5578C12.1995 24.9854 12.0513 28.4239 12.0513 31.8295C12.0513 74.5558 34.2827 113.915 70.4972 136.092C106.712 113.915 128.943 74.5503 128.943 31.8295C128.943 28.3581 128.795 24.8647 128.493 21.3824C109.922 15.1799 90.5334 12.043 70.7496 12.043" fill="white"/>
<path d="M70.4972 14.4944L71.9076 18.8323H76.468L72.7801 21.5085L74.1905 25.8464L70.4972 23.1647L66.8093 25.8464L68.2197 21.5085L64.5264 18.8323H69.0923L70.4972 14.4944Z" fill="white"/>
<path d="M47.8486 16.0299L49.0724 19.7975H53.0347L49.8298 22.1227L51.0536 25.8902L47.8486 23.5595L44.6437 25.8902L45.8675 22.1227L42.6626 19.7975H46.6248L47.8486 16.0299Z" fill="white"/>
<path d="M93.1514 16.0299L91.9276 19.7975H87.9653L91.1703 22.1227L89.9465 25.8902L93.1514 23.5595L96.3563 25.8902L95.1325 22.1227L98.3374 19.7975H94.3752L93.1514 16.0299Z" fill="white"/>
<path d="M103.485 31.813H94.3913L85.1223 57.8075C85.1223 57.7472 85.1278 57.6923 85.1278 57.632C85.1278 55.8277 84.6668 54.0509 83.7613 52.3508C82.8448 50.6398 81.4564 49.2304 79.6234 48.1665C77.8453 47.13 75.2167 46.2197 71.8142 45.4464C67.7861 44.536 66.3318 43.8231 65.8159 43.3844C65.119 42.8031 64.7787 42.134 64.7787 41.3443C64.7787 40.3024 65.2068 39.4359 66.0848 38.69C66.9848 37.9278 68.2251 37.5384 69.7782 37.5384C71.0514 37.5384 72.2203 37.8345 73.252 38.4268C74.3112 39.0301 75.3703 40.0117 76.3965 41.3388L76.6984 41.7282L84.3759 38.8765L83.9259 38.1745C83.0808 36.8638 82.2137 35.8054 81.3521 35.0377C80.0405 33.8915 78.4216 32.9427 76.5447 32.2134C74.6624 31.484 72.4947 31.1111 70.1074 31.1111C65.8982 31.1111 62.5177 32.153 60.0756 34.2041C58.5555 35.4819 57.4963 36.979 56.9036 38.6791V31.8075H47.8267V54.1441C47.8267 55.8881 47.5029 57.3358 46.8553 58.4491C46.2132 59.5569 45.39 60.3356 44.3309 60.8237C43.2498 61.3228 41.9876 61.575 40.5772 61.575C38.3711 61.575 36.6863 60.9773 35.4295 59.7488C34.1893 58.5423 33.5637 56.6558 33.5637 54.1496V31.813H24.5142V55.3561C24.5142 58.1256 24.9532 60.3795 25.8148 62.0521C26.6709 63.7083 27.7575 65.0958 29.0471 66.1707C29.9911 66.9439 31.1764 67.5801 32.5813 68.0517C35.1387 68.9072 37.9375 69.3405 40.89 69.3405C46.0596 69.3405 50.0602 68.1065 52.7767 65.6661C54.0225 64.5474 54.9719 63.1983 55.6579 61.6518C56.4207 62.8802 57.1835 63.8948 57.9408 64.6461C59.3622 66.0829 61.1128 67.2346 63.1543 68.0791C65.1903 68.9182 67.6214 69.3459 70.3709 69.3459C73.2794 69.3459 75.8972 68.8359 78.1527 67.8268C80.1393 66.9384 81.7253 65.699 82.8722 64.1361L81.2643 68.6495H90.2479L93.2059 60.3192H104.752L107.716 68.6495H116.7L103.501 31.813H103.485ZM60.0866 49.6636C62.0567 51.2431 65.1903 52.5263 69.6684 53.5957C73.477 54.5225 74.9587 55.3342 75.524 55.8497C76.2923 56.5571 76.6655 57.3468 76.6655 58.2572C76.6655 59.3046 76.188 60.204 75.2057 60.9937C74.1904 61.8108 72.7252 62.2276 70.8483 62.2276C69.2733 62.2276 67.8903 61.8986 66.7489 61.246C65.5854 60.5879 64.3726 59.3759 63.1433 57.6594L62.8525 57.2481L56.3823 59.5404C56.7225 58.2023 56.9036 56.749 56.9036 55.1696V45.3806C57.4963 46.9929 58.5609 48.4242 60.0866 49.6636ZM102.42 53.8096H95.434L98.9517 44.0699L102.42 53.8096Z" fill="white"/>
<path d="M29.228 76.2778L30.5341 85.0139H30.5671L31.9555 76.2778H34.2384L35.6269 85.0139H35.6598L36.9659 76.2778H39.2489L37.0976 88.0904H34.4305L33.1079 79.5189H33.075L31.7524 88.0904H29.0853L26.9341 76.2778H29.217H29.228Z" fill="white"/>
<path d="M45.2579 76.2778L48.386 88.0904H45.9L45.3512 85.5897H42.2067L41.6579 88.0904H39.1719L42.3 76.2778H45.247H45.2579ZM44.9396 83.6429L43.7982 78.3343H43.7652L42.6237 83.6429H44.9396Z" fill="white"/>
<path d="M55.3062 78.2301H52.7214V88.0904H50.3397V78.2301H47.7549V76.2778H55.3062V78.2301Z" fill="white"/>
<path d="M63.3514 78.2301H59.1312V81.0105H63.1045V82.9628H59.1312V86.1381H63.5215V88.0904H56.7495V76.2778H63.3569V78.2301H63.3514Z" fill="white"/>
<path d="M69.5308 76.2778C70.5241 76.2778 71.2979 76.53 71.8467 77.0291C72.3955 77.5281 72.6753 78.2959 72.6753 79.3214C72.6753 80.1166 72.5162 80.7637 72.1924 81.2683C71.8686 81.7728 71.3747 82.0909 70.6997 82.2335V82.2664C71.2979 82.3541 71.7314 82.5461 72.0058 82.8477C72.2802 83.1493 72.4558 83.6264 72.5217 84.29C72.5436 84.5093 72.5601 84.7506 72.5711 85.0084C72.5821 85.2661 72.593 85.5568 72.604 85.8749C72.626 86.5055 72.6589 86.9827 72.7028 87.3172C72.7686 87.6462 72.9113 87.8766 73.1308 87.9972V88.0959H70.546C70.4253 87.9314 70.3485 87.7395 70.3156 87.5256C70.2826 87.3117 70.2607 87.0869 70.2497 86.8565L70.1838 84.5916C70.1619 84.1309 70.0467 83.7635 69.8381 83.5003C69.6296 83.237 69.2729 83.1054 68.779 83.1054H67.5058V88.1014H65.124V76.2887H69.5308V76.2778ZM68.5046 81.4383C69.0808 81.4383 69.5198 81.3012 69.8271 81.0324C70.1345 80.7637 70.2881 80.3086 70.2881 79.6669C70.2881 78.5756 69.7338 78.0272 68.6308 78.0272H67.5058V81.4383H68.4991H68.5046Z" fill="white"/>
<path d="M83.3056 76.2778C83.9147 76.2778 84.4251 76.382 84.8367 76.5849C85.2483 76.7878 85.583 77.0565 85.841 77.3856C86.0934 77.7146 86.2745 78.093 86.3897 78.5207C86.4995 78.943 86.5544 79.3763 86.5544 79.8205C86.5544 80.4292 86.4611 80.9557 86.28 81.4109C86.0989 81.866 85.8464 82.2335 85.5172 82.5186C85.1934 82.8038 84.7983 83.0232 84.3318 83.1657C83.8653 83.3083 83.3549 83.3796 82.7897 83.3796H81.5165V88.0959H79.1348V76.2833H83.3056V76.2778ZM82.5757 81.6247C83.0476 81.6247 83.4318 81.4821 83.7281 81.197C84.019 80.9118 84.1671 80.4621 84.1671 79.8589C84.1671 79.2556 84.0409 78.8114 83.7885 78.5043C83.536 78.1972 83.108 78.0436 82.5153 78.0436H81.522V81.6357H82.5812L82.5757 81.6247Z" fill="white"/>
<path d="M87.6848 79.7108C87.7671 78.954 87.9482 78.3069 88.2336 77.764C88.519 77.221 88.9196 76.7988 89.4519 76.4971C89.9842 76.1955 90.6922 76.042 91.5867 76.042C92.4812 76.042 93.1946 76.1955 93.7215 76.4971C94.2538 76.7988 94.6544 77.221 94.9398 77.764C95.2252 78.3069 95.4008 78.954 95.4886 79.7108C95.5764 80.4676 95.6148 81.2902 95.6148 82.1841C95.6148 83.078 95.5709 83.9171 95.4886 84.6684C95.4063 85.4197 95.2252 86.0613 94.9398 86.6043C94.6544 87.1472 94.2538 87.5585 93.7215 87.8437C93.1892 88.1288 92.4812 88.2769 91.5867 88.2769C90.6922 88.2769 89.9787 88.1343 89.4519 87.8437C88.9196 87.5585 88.519 87.1417 88.2336 86.6043C87.9482 86.0668 87.7726 85.4197 87.6848 84.6684C87.597 83.9171 87.5586 83.089 87.5586 82.1841C87.5586 81.2792 87.6025 80.4676 87.6848 79.7108ZM90.0007 84.2132C90.0391 84.7726 90.1159 85.2223 90.2312 85.5678C90.3464 85.9133 90.5111 86.171 90.7306 86.3301C90.9446 86.4891 91.23 86.5714 91.5812 86.5714C91.9324 86.5714 92.2178 86.4891 92.4318 86.3301C92.6458 86.171 92.8105 85.9188 92.9312 85.5678C93.0465 85.2223 93.1233 84.7671 93.1617 84.2132C93.2001 83.6593 93.2221 82.9793 93.2221 82.1841C93.2221 81.3889 93.2001 80.7144 93.1617 80.166C93.1233 79.6176 93.0465 79.1624 92.9312 78.8114C92.816 78.4604 92.6513 78.2027 92.4318 78.0436C92.2178 77.8846 91.9324 77.8023 91.5812 77.8023C91.23 77.8023 90.9446 77.8846 90.7306 78.0436C90.5166 78.2027 90.3519 78.4604 90.2312 78.8114C90.1159 79.1624 90.0391 79.6176 90.0007 80.166C89.9623 80.7144 89.9403 81.3889 89.9403 82.1841C89.9403 82.9793 89.9623 83.6538 90.0007 84.2132Z" fill="white"/>
<path d="M97.4313 76.2778H99.813V86.1381H104.033V88.0904H97.4258V76.2778H97.4313Z" fill="white"/>
<path d="M104.725 79.7108C104.807 78.954 104.988 78.3069 105.274 77.764C105.559 77.221 105.96 76.7988 106.492 76.4971C107.024 76.1955 107.732 76.042 108.627 76.042C109.521 76.042 110.235 76.1955 110.762 76.4971C111.294 76.7988 111.694 77.221 111.98 77.764C112.265 78.3069 112.441 78.954 112.529 79.7108C112.616 80.4676 112.655 81.2902 112.655 82.1841C112.655 83.078 112.611 83.9171 112.529 84.6684C112.446 85.4197 112.265 86.0613 111.98 86.6043C111.694 87.1472 111.294 87.5585 110.762 87.8437C110.229 88.1288 109.521 88.2769 108.627 88.2769C107.732 88.2769 107.019 88.1343 106.492 87.8437C105.96 87.5585 105.559 87.1417 105.274 86.6043C104.988 86.0668 104.813 85.4197 104.725 84.6684C104.637 83.9171 104.599 83.089 104.599 82.1841C104.599 81.2792 104.643 80.4676 104.725 79.7108ZM107.041 84.2132C107.079 84.7726 107.156 85.2223 107.271 85.5678C107.386 85.9133 107.551 86.171 107.771 86.3301C107.985 86.4891 108.27 86.5714 108.621 86.5714C108.972 86.5714 109.258 86.4891 109.472 86.3301C109.686 86.171 109.851 85.9188 109.971 85.5678C110.087 85.2223 110.163 84.7671 110.202 84.2132C110.24 83.6593 110.262 82.9793 110.262 82.1841C110.262 81.3889 110.24 80.7144 110.202 80.166C110.163 79.6176 110.087 79.1624 109.971 78.8114C109.856 78.4604 109.691 78.2027 109.472 78.0436C109.258 77.8846 108.972 77.8023 108.621 77.8023C108.27 77.8023 107.985 77.8846 107.771 78.0436C107.557 78.2027 107.392 78.4604 107.271 78.8114C107.156 79.1624 107.079 79.6176 107.041 80.166C107.002 80.7144 106.98 81.3889 106.98 82.1841C106.98 82.9793 107.002 83.6538 107.041 84.2132Z" fill="white"/>
<path d="M118.351 125.749C118.351 126.594 118.05 127.318 117.451 127.921C116.853 128.519 116.129 128.821 115.278 128.821C114.428 128.821 113.709 128.519 113.105 127.921C112.507 127.323 112.205 126.6 112.205 125.749C112.205 124.899 112.507 124.181 113.105 123.578C113.703 122.98 114.428 122.678 115.278 122.678C116.129 122.678 116.848 122.98 117.451 123.578C118.05 124.176 118.351 124.899 118.351 125.749ZM117.676 125.749C117.676 125.091 117.441 124.521 116.974 124.049C116.508 123.578 115.942 123.336 115.284 123.336C114.625 123.336 114.06 123.572 113.594 124.049C113.127 124.527 112.891 125.091 112.891 125.749C112.891 126.408 113.127 126.978 113.594 127.45C114.06 127.921 114.625 128.162 115.284 128.162C115.942 128.162 116.508 127.927 116.974 127.45C117.441 126.978 117.676 126.408 117.676 125.749ZM117.007 127.203H116.047L115.119 126.084H114.812V127.203H114.06V124.148H115.223C115.437 124.148 115.613 124.159 115.739 124.176C115.871 124.192 115.997 124.236 116.129 124.302C116.266 124.378 116.37 124.472 116.436 124.587C116.502 124.697 116.535 124.834 116.535 125.004C116.535 125.228 116.475 125.409 116.348 125.552C116.222 125.695 116.058 125.81 115.86 125.887L117.012 127.203H117.007ZM115.695 125.058C115.695 124.993 115.679 124.938 115.657 124.883C115.63 124.828 115.586 124.79 115.52 124.751C115.459 124.718 115.394 124.697 115.317 124.691C115.24 124.68 115.152 124.68 115.053 124.68H114.817V125.541H114.998C115.125 125.541 115.229 125.53 115.322 125.514C115.41 125.497 115.487 125.464 115.536 125.426C115.591 125.388 115.63 125.338 115.657 125.278C115.684 125.218 115.695 125.146 115.695 125.064V125.058Z" fill="#002E6D"/>
</g>
<defs>
<clipPath id="clip0_22387_122144">
<rect width="141" height="150" fill="white"/>
</clipPath>
</defs>
</svg>
